<svg version="1.2" xmlns="http://www.w3.org/2000/svg" viewBox="0 0 1024 1024" width="1024" height="1024">
	<title>網站圖表ICON</title>
	<style>
		tspan { white-space:pre } 
		.s0 { opacity: .7;fill: #000000 } 
		.s1 { opacity: .3;fill: #000000 } 
		.s2 { fill: #000000 } 
	</style>
	<g id="11 行政區">
		<path id="beitou" class="s0" d="m353.2 476c-20.2-1.6-22.3-4-22.4-25.4-0.1-20-2.9-26.7-13.1-31.4-6.9-3.1-7.4-3.1-19.6-0.2-7 1.7-16.9 4.8-22 7-13.4 5.5-20.4 6.5-26.5 3.5-7.3-3.6-18.5-12.3-17.3-13.5 0.6-0.5-0.2-2.2-1.8-3.7-1.7-1.6-2.9-5.5-2.9-9.4 0-6 0.5-6.7 5.4-7.6 5.7-1.1 9.3-5.5 8.6-10.4-1.2-7.8 2.7-16.5 12-26.5 5.3-5.7 9.6-11 9.6-11.7 0-1.6 9.9-12.6 20.3-22.7 4.3-4.2 8.4-9.3 9-11.4 0.8-2.4 2.6-3.7 5.2-3.7 4.4 0 8.3-2.9 8.3-6.2 0-6.7 23.1-35.9 28.5-35.9 0.8 0 2.4-2.6 3.5-5.8 1.1-3.1 3.1-6.6 4.4-7.6 1.3-1 2.9-4.5 3.6-7.7 1.1-6 3.3-7.4 5.8-3.7 0.7 1.1 4.9 3.8 9.2 5.8 7.3 3.6 8 3.6 12.7 1.1 4.5-2.6 5.5-2.6 13.4 0 4.7 1.5 8.8 2.5 9 2.3 2.8-2.6 7.9-18.3 7.9-24.2 0-5.5 1.2-9.1 4.5-13.1 4-5 5.7-5.8 16-6.8 10-1 12-1.8 15.2-6.1 2.7-3.6 5.2-4.9 9.1-4.9 6.7 0 12-5.6 12.1-12.9 0-3 0.8-7.2 1.7-9.5 1.9-4.8 13.3-12 16.9-10.7 1.3 0.5 4.2-0.3 6.4-1.8 3.4-2.2 3.8-3.7 3.1-10.2-0.7-5.4-0.2-8.4 1.6-10.1 1.4-1.3 3-4.5 3.6-7 0.6-3.2 2.9-5.5 7.1-7.4 8.8-4 10.4-3.5 12.5 3.5 1.1 3.5 2.9 8.6 3.9 11.4 1.1 2.8 2.4 7.1 2.9 9.5 0.7 3.3 2.8 5.2 8.2 7.2 4.2 1.6 7.7 4.2 8.2 6 0.5 1.8 2.5 3.7 4.3 4.3 2.9 0.8 2 2.2-5.8 9.1-8.9 8-9.1 8.3-7.9 15.6 1.4 9.2-5.4 25.6-11.2 27-6 1.5-8.4 8.6-5.8 16.9 2.9 8.8 2.9 9.8 0.2 22.6-1.9 9.6-2.6 10.6-8 12.5-4.3 1.4-7.3 4.3-10.6 9.9-2.5 4.4-4.5 8.9-4.5 10 0 1.1-2.3 4.8-5.2 8.2-3.7 4.5-5.5 8.9-6.4 16-1.6 11.8-6.1 16.4-16.3 17-4 0.2-9.7 2.2-13.8 4.8-3.8 2.5-7.7 4.5-8.6 4.5-0.9 0-4.5 2.1-8 4.6l-6.3 4.6 1 14.7c0.6 9 0.3 15.2-0.8 15.8-1 0.6-2.5 2.8-3.4 5.1-1 2.4-3 4-5.2 4-2.4 0-3.9 1.5-4.6 4.6-0.6 2.6-2.3 7-3.9 9.9-2.5 4.7-2.5 5.8 0.4 12.9 3.1 7.8 2.6 11.3-1.7 11.3-3.4 0-7.4 6.7-8.9 14.9-0.7 4-2.3 7.6-3.6 8.1-1.2 0.4-3.6 3.7-5.4 7.3-2.5 5.3-5 7.3-14 11.2-13.1 5.6-11.2 5.2-19.8 4.5z"/>
		<path id="shilin" class="s1" d="m404 536.7c0-0.8-2.3-2.4-4.9-3.4-2.7-1.1-7.1-3-9.6-4.4-4.1-2.1-5.6-2.1-10.7-0.1-3.3 1.2-10 2.7-14.9 3.3l-8.9 1-7.2-13.8c-4.9-9.5-10.6-17.2-18.3-24.7-6.2-5.9-13.8-13.8-16.9-17.5-9.2-11.1-24.1-16.5-51.1-18.7-24.2-1.9-26.6-2.9-36.7-14.2l-4.8-5.4 3.3-7.1c6.2-13.6 6.4-13.7 14.2-6.4 9.1 8.3 16.8 10.8 26.4 8.5 7.5-1.8 15.5-5 17.1-6.8 2-2.3 27.2-8.5 30.9-7.6 2.2 0.5 6.2 3.1 9 5.8 5.3 5.3 8.1 17.8 8.2 37.7 0 9.1 0.3 9.8 5.8 12.4 7.7 3.8 28.1 5.9 31.6 3.3 1.5-1.1 6.7-3.7 11.6-5.8 7.7-3.2 9.7-5.2 14.7-14.2 3.2-5.7 6.2-12.4 6.8-14.9 1.1-4.7 6.9-11.5 9.7-11.5 3.4 0 3.9-8.4 0.8-15.9-2.8-7-2.8-7.9-0.1-11.8 1.6-2.3 2.9-5.3 2.9-6.8 0-1.5 2.3-3.4 5.1-4.4 7.6-2.5 10.5-11.1 9.5-28.1-0.6-9.1-0.2-13.8 1-13.8 1.1 0 3-0.9 4.3-2.1 5.1-4.6 25.7-13.5 30.6-13.2 7.8 0.4 14.5-7.2 15.9-18 0.7-5.8 3-11.3 6.6-16.3 3.1-4.2 6.4-10.1 7.4-13.1q4.3-13 7.8-13c4.8 0 10.4-6.6 13.5-16.1 4-11.9 4.1-17 0.7-22.6-4-6.7-4.4-10.4 2.2-15.2 5.6-4.1 6.9-5.7 10.4-14.4 4.2-10.4 2.6-15 0.4-18.4-0.6-0.9 0-0.7 0.2-1.7 0.2-1.1 0.3-0.9 0.7-1.4 0.4-0.5 4.1-2.7 8.7-6.8 8-6.9 18.6-11 22.7-8.6 0.9 0.5 2.2 0.1 2.8-0.8 0.6-0.9 2.5-1.7 4.1-1.7 2.2 0 3.7 2.3 5.1 8 1.7 7 1.5 8.5-1.5 12.6-1.9 2.6-3.3 6.4-3.1 8.4 0.2 2.1-0.6 5.8-1.8 8.2-1.9 3.8-1.7 5.4 1.5 11.3 2 3.8 3.7 7.8 3.7 8.9 0 1.1-4 6-8.9 10.9-7.2 7.2-8.9 10-8.9 14.8 0 3.2 1.3 7 2.8 8.5 3.4 3.2 10.4 5 14.2 3.7 1.5-0.6 4 0.4 5.7 2.3 1.9 2.1 5.3 3.4 8.7 3.4 5.4 0 5.9 0.5 8.6 9.3 2.8 9.1 2.8 9.5-1 15.9-4.3 7.1-3.2 10.6 3.9 12.7 1.9 0.5 3.9 3 4.6 5.5 0.6 2.5 2.1 6 3.3 7.9 1.1 1.8 3.2 6.6 4.5 10.6 1.8 5.6 4.6 8.9 12.3 14.4 9.6 6.9 9.9 7.4 10.4 16 0.5 7.5 1.2 9.1 5 10.7l4.3 1.9-3.9 3.9c-2.1 2.2-5.3 3.9-7 3.9-4.3 0-8.7 4.6-8.7 9 0 2-2 6.4-4.3 9.7-2.4 3.3-5.1 8.5-5.9 11.6-1.3 4.7-2.4 5.5-7.7 6-3.4 0.3-7.8 0.9-9.7 1.4-2 0.4-4.6 0.8-5.8 0.9-1.3 0.1-4.2 4.1-6.6 9-3.6 7.5-5.6 9.5-12.8 12.6-5.6 2.4-9.2 3.1-10.3 2.1-2.6-2.5-10.1-1.9-16.9 1.3-6.3 3-6.8 3.6-11.7 14.2-2.3 5.1-4.2 6.6-10.1 8.1-4.1 1-9.1 1.5-11.3 1-4.1-1-8.1 2.9-13.9 13.4-2.3 4.2-5.2 6-14.3 8.9-10.5 3.3-11.8 3.4-16.6 1.1-11.4-5.6-17.8-2.6-39.3 18.5-7 6.9-13.5 12.6-14.5 12.6-2.6 0-3.9 4.6-2.7 10.1 0.7 3.2 0.3 5-0.9 5-1.1 0-2-0.7-2-1.5z"/>
		<path id="neihu" class="s0" d="m542.7 615.2c0-1.1 0-5.5 0.1-9.7 0.2-4.1-1.2-11.7-3.1-16.8l-3.4-9.2 4.2-8.5c4.9-9.9 5.2-15.2 1.3-24.3-2.2-5.2-5-7.9-12.6-12-6.8-3.7-10.6-7.1-12.6-11.4-4-8.3-7.5-12-11.4-12-2 0-3.3-1.2-3.3-3.2 0-1.7-2.8-5.1-6.2-7.6-7.1-5.1-7.5-6.4-3.1-10.9 1.7-1.8 5.1-5.9 7.6-9.2 2.4-3.3 5.7-6 7.4-6.1 1.6 0 7.1-0.9 12.1-2 9.4-2 11.3-4.2 16.6-18.5 0.6-1.6 4.4-3.8 8.4-5 6.3-1.7 8.1-1.6 12.3 0.7 4.6 2.6 5 2.5 7.8-0.5 1.7-1.9 4.1-3.3 5.5-3.3 4.3 0 11.8-6.9 15.2-14 2.8-5.8 4.8-7.5 10.9-9.2 7-2.1 9.5-1.8 9.9 1 0.1 0.6 1.1 3.3 2.2 5.9 1.2 2.6 2.1 5.7 2.1 6.9 0 1.3 6.7 4.4 15.6 7.4 8.6 2.8 19.9 6.6 25.2 8.4 5.3 1.8 12.2 5.9 15.4 9 13.2 12.8 18.1 16.5 21.8 16.5 3.3 0 3.6 0.6 2.3 4-1.8 4.3 1.2 14.8 6.1 21.8 2.2 3.2 2.2 4.7 0.2 10.3-1.3 3.5-3.7 7.2-5.2 8-1.6 0.8-4.3 5.8-6 11.1-1.7 5.3-4.2 10.2-5.4 11-1.4 0.8-2.3 4.7-2.3 9.6 0 6.5-0.8 8.7-3.5 10-1.9 1-4.8 4.3-6.3 7.4-2.3 4.5-3.7 5.5-7 4.9-3.1-0.6-5.3 0.7-8.9 5.1-5.4 6.8-13.6 10.3-27.7 12.1-5.4 0.7-11.1 1.9-12.7 2.7-2.4 1.2-2.9 0.4-2.7-4.8 0.2-5.6-0.3-6.3-4.4-6.8-3.9-0.4-5.2 0.6-7.9 5.9-6.8 13.5-13.3 17.7-37.3 23.9-15.8 4.1-16.9 4.2-17.2 1.4z"/>
		<path id="zhongshan" class="s2" d="m425.6 633.4c-7.1-2.2-16.9-4.5-21.7-5.1-8.7-1.2-8.7-1.2-7.4-6.5 0.7-2.9 1-12.1 0.8-20.5-1.3-41-1-48.7 2.1-55.5 2.9-6.4 3.1-6.6 5.6-3.5 1.4 1.8 2.5 3.9 2.5 4.7 0 0.7 1.3 1.3 2.9 1.3 2.4 0 2.8-1.2 1.9-7.2-0.6-4-1.6-8.5-2.2-9.9-0.6-1.6-0.1-3 1.3-3.3 1.3-0.4 9.3-7.8 17.6-16.6 17.4-18.1 22.4-20.6 32.6-16 6.4 2.9 7.9 2.8 19.3-1.6 2.2-0.9 3.7 0.2 5.7 3.8 1.5 2.8 4.7 5.5 7 6 2.9 0.7 4.6 2.6 5.3 5.9 0.8 3.7 2.3 5.1 6.5 5.8 4.3 0.9 5.4 1.9 5.4 5.2 0 5.3 7.3 13.4 14.5 16.2l5.7 2.3-6.8 5.5c-3.8 3.1-7.8 5.6-9 5.6-1.2 0-5.6-1.8-9.9-4-4.3-2.2-10.1-4.5-12.8-5.1-4.3-0.9-5.2-0.4-7.3 4.1-3.3 7.4-9.9 10.1-25.4 10.1-10.6 0-13.4 0.5-14.3 2.7-1.5 3.6 1.5 8 5.9 8.8 4.3 0.7 25.3 13.9 26.4 16.6 0.4 1.1-0.3 5.7-1.7 10.2-2.1 6.6-3.8 8.7-8.9 11-6 2.7-6.2 3.2-6.3 11.6 0 4.9-0.5 11.7-1.1 15.2l-1.1 6.3-10-0.1c-5.5 0-15.9-1.8-23.1-4z"/>
		<path id="datong" class="s2" d="m356.2 627.8c-1.8-1.2-1.8-2.5-0.1-6.4 1.2-2.7 2.4-11.7 2.7-20.1 0.3-8.3 1-20.8 1.6-27.7q1.1-12.6-1.5-24.4c-1.5-6.5-2.4-12.1-2.1-12.4 0.3-0.3 4.8-1.1 10-1.7 5.3-0.7 11.3-2.2 13.5-3.3 3.4-1.8 5.1-1.5 11.2 1.7 4.8 2.7 6.8 4.7 6.1 6.4-3.7 8.9-6.3 27.2-5.2 37 2.2 20.9 1.9 45.2-0.6 47.5-1.3 1.2-6.8 2.3-12.4 2.4-5.6 0.1-12.6 0.7-15.5 1.3-3 0.6-6.4 0.5-7.7-0.3z"/>
		<path id="zhongzheng" class="s2" d="m421.8 745.4c-4.8-1.6-8.6-5.3-16.5-16.3-9-12.4-11.4-14.6-19.5-17.8-5.4-2.1-9.8-5.1-10.6-7.1-0.8-1.9-3.3-3.9-5.6-4.5-2.4-0.5-7.3-4.4-10.9-8.5l-6.6-7.5 4.5-10.7c2.5-6 4.6-13 4.6-15.6 0-7.7 5.2-24.7 8.2-26.9 4.4-3.1 31.6-1 50.1 3.9l9.4 2.5v17.8 17.7l-6.7-1.2c-3.7-0.6-7.9-2.2-9.5-3.5-1.5-1.3-3.4-2.4-4.1-2.4-2.3 0-10 17.5-10 22.9 0 5.7 6.5 15.3 18.6 27.6 4.1 4.1 11.3 11.9 16 17.1l8.4 9.6-5.4 2.6c-6.2 3.1-6.2 3.1-14.4 0.3z"/>
		<path id="wanhua" class="s2" d="m317 744.7c-5.7-5.7-9.8-20.2-8.4-29.7 1-6.9 0.3-9.8-6.3-23.7-10.4-22-9.7-28.9 3.1-33.2 8.9-2.9 36.7-18.8 41-23.4 3.2-3.5 4.8-3.9 10.2-3 5.3 1 6.2 1.7 5.5 4.7-5.7 23.2-8 31.6-10.5 37.1-1.6 3.6-2.9 8.4-2.9 10.7 0 5.2 10.7 17.2 17.9 20 6.4 2.6 6.9 5.7 0.9 5.7-4.4 0-8.8 4.3-22.7 21.8-5.8 7.3-18.1 16.7-22 16.8-1.1 0.1-3.7-1.7-5.8-3.8z"/>
		<path id="daan" class="s1" d="m457.5 752c-6.8-0.8-8.3-1.7-11.5-7.1-4.1-6.9-14-18.7-30.9-37.2-6.2-6.7-11.7-13.9-12.3-16-0.6-2.1 0.3-7.3 2-11.4 2.4-6 3.8-7.4 6-6.5 6.5 2.6 17.3 3.8 19.4 2.1 1.3-1 2.3-7.9 2.6-18.5l0.5-16.8 25 0.2c13.7 0.2 28.8 0.3 33.5 0.4l8.6 0.2-0.6 23.2-0.5 23.3-6.7 6.4c-7.4 7.1-8.3 10.9-3.5 14.2 4.4 3.1 22.7 26.4 25.5 32.6 1.2 2.7 3.9 6.7 5.8 8.8 6 6.4-0.2 4.2-8.5-3-4.2-3.7-9.1-6.7-10.8-6.7-1.7 0-5.3 2.2-7.9 4.9-3.5 3.5-5.6 4.5-7.4 3.4-3.8-2.3-9.9-1.9-12.2 0.8-2.8 3.1-6.6 3.7-16.1 2.7z"/>
		<path id="xinyi" class="s2" d="m524 747.3c-2-2.5-4.1-5.9-4.7-7.4-1-2.5-6.7-10.1-23.3-30.6l-5.1-6.4 5.9-6.9 5.8-6.9 0.4-22c0.2-12.1 0.4-23.2 0.5-24.7 0.1-1.7 5.7-5 14.6-8.8 12.9-5.5 16-6.2 29.3-6.2h15l1.8 6.6c1.7 5.7 10 15 15.5 17.2 2.1 0.9 9.5 15.2 9.5 18.3 0 1.4 1.6 4.9 3.5 7.9l3.4 5.3-4.8 2.9c-7.7 4.8-14.5 15.1-14.5 22.1 0 5.6-2.4 9.3-11.2 17.9q-7.6 7.2-16 9.6c-4.7 1.3-8.5 3-8.5 3.8 0 1.3-11.7 13-13 13-0.3 0-2.2-2.1-4.1-4.7z"/>
		<path id="songshan" class="s2" d="m473.7 639.4l-11.3-1.8 1-7.5c0.6-4.1 1.1-10.1 1.1-13.2 0-4.7 0.9-5.9 5.9-7.9 5-2 6.6-4.1 10-12.8l4-10.5-4.8-4.8c-5.2-5.1-24.2-16.7-27.4-16.7-1 0-1.9-0.8-1.9-1.7 0-1 5.4-1.7 12.6-1.7 14 0 24-3.4 25.7-8.6 1.5-4.3 5.4-4 16 1.1 10.6 5.1 14.3 4.5 23.3-3.5 3.7-3.2 6.8-5.7 7-5.4 2.3 2.5 6.2 12 6.2 14.8 0 2-2 8-4.5 13.2l-4.5 9.5 3.6 9.9c2 5.5 3.6 14.2 3.6 19.6 0 8.5 0.5 9.9 3.9 10.9 2.1 0.6 6.9 0.2 10.7-1 7.4-2.3 9.7-1.6 8 2.5-0.8 2.1-4.2 2.6-16.2 2.6-14 0-16.4 0.6-30.8 6.8-17.6 7.7-24.9 8.8-41.2 6.2z"/>
		<path id="nangang" class="s1" d="m563.8 739.2c-2.8-2.7-1-6.4 6.6-13.5 5.5-5.1 8.3-9.3 9.2-13.7 1.4-7.8 10.5-21.8 15-23.2 4.6-1.3 6.2-7.1 3-10.6-1.4-1.5-3.1-5.5-3.7-8.7-1.6-8.3-8.6-21.9-11.3-21.9-4.1 0-13.3-9.3-15.7-15.9-3.7-10-1.7-15.7 6.1-17.7 11.1-2.9 20-9.2 24.9-17.7 6-10.1 9.7-10.1 6.4 0.2-1.5 4.9 2.9 6.2 10.7 3.1 3.4-1.4 9-2.5 12.4-2.5 8.6 0 24.5-6.9 28.3-12.3 3.5-5.2 6.6-5.8 6.6-1.6 0 2.4 0.3 2.5 1.6 0.6 2.4-3.5 13.5 3.6 16.4 10.4 1.2 3 2.5 6 2.9 6.7 0.4 0.7-1 1.3-3.2 1.3-3.2 0-3.7 0.7-2.8 4.2 1 3.4 0.1 4.8-5.1 8-5.3 3.2-6.2 4.7-6.3 10.1 0 5.6 4.5 15.7 11.7 26.3 4.5 6.7 13 13.1 19.9 15 4.2 1.2 7.6 2.9 7.6 3.8 0 0.9 1.8 1.6 4 1.6 4.7 0.1 15 4.6 26.3 11.7 4.4 2.8 9.2 5.6 10.7 6.2 1.5 0.7 3.5 2.2 4.4 3.4 1.2 1.5 6.9 2.4 16.1 2.7 12.6 0.3 14.9-0.1 19.8-3.6 7.5-5.3 16.7-3.9 16.7 2.5 0 2.3-0.8 5.7-1.8 7.4-1.9 3.4-1.7 3.4-28.2 0.6-8-0.9-10.3-0.5-14.7 2.6l-5.3 3.7-4.6-3.5c-3.9-2.8-6.2-3.2-14-2.4-7.2 0.8-10.4 0.4-13.6-1.7-7.7-5.1-12-3.6-16.1 5.7-2 4.6-5.2 8.8-7 9.3-1.9 0.6-3.4 1.6-3.4 2.3 0 4.9-22.4 5.6-24.4 0.8-0.5-1.3-3.5-2.3-7.1-2.3-3.4 0-8.6-1.3-11.5-2.9-5.1-2.8-5.4-2.8-7.1 0-1 1.7-3.8 2.9-6.7 2.9-5 0-7.5 2.9-10 11.4-0.8 2.6-2.5 3.8-5.4 3.8-2.4 0-4.4-0.9-4.4-1.9 0-1.3-0.6-1.4-2.2-0.2-1.2 1-4.2 1.8-6.7 1.8-5.8-0.1-13.2 1.2-15.5 2.5-0.9 0.5-6.1 1.7-11.4 2.6-5.3 0.9-11.2 2.1-13.2 2.7-2 0.6-4.2 0.5-4.9-0.1z"/>
		<path id="wenshan" class="s0" d="m606.9 894.8c-3.8-5-4.4-5.2-13.4-4.3-7.8 0.7-12 0-23-4-16-5.8-23.2-6.4-24.5-1.8-1.6 5.9-23.4 6.6-32.8 1-2.1-1.3-5.2-6-6.9-10.4-1.7-4.4-5.7-13.1-8.9-19.3-5.2-10-5.7-12.5-4.9-21.2 1.2-12.3-1.2-17.2-8.2-17.2-4.2 0-5.3 0.9-6.1 4.8-1.9 9.2-11.9 8-11.9-1.5 0-4.3-0.6-4.7-9.7-5.8-10.3-1.2-10.4-1.2-12.5-13.2-0.6-3.5-2.3-6.8-3.7-7.3-2.6-0.9-9.6 5.8-15.8 15.3-4.3 6.6-5.9 2.9-1.9-4.5 6.2-11.5 9.7-25.7 9.7-39 0.1-10.6 0.7-13.7 3.2-15.5 4.1-2.9 7.5-2.9 7.5 0 0 3 2.4 3.8 14.7 5.3 7.2 0.8 11.2 0.5 15.1-1.4 3.4-1.7 7.7-2.3 12.6-1.7 6.7 0.9 7.6 0.6 9.1-3.2 2.7-6.8 6.7-6.9 13.5-0.4 5.2 4.9 7.4 5.8 14.1 5.8 7.9 0 16-4.4 22-12 3.4-4.3 10.7-5.3 16.3-2.1 4.6 2.5 5.9 2.5 19.1-0.2 25.3-5.1 29.8-5.9 30.7-5 0.5 0.4-0.1 3.7-1.2 7.3-2.5 8-2.7 23.8-0.3 23.8 1 0 3.9 3 6.5 6.7 4.6 6.7 4.7 6.9 1.8 14-4.2 10.3-3.7 17 1.5 22.4 5.3 5.3 5.3 5.2 1.6 8.7-2.2 2-2.7 4.9-2 12 0.4 5.2 0 11.1-1 13.1-4.4 9.4 6.4 17.3 27.2 19.9 10.1 1.3 27.5 9.3 29.2 13.4 0.7 1.7-1.7 2.9-8.6 4.2-5.3 1.1-12.8 4.1-16.8 6.8-3.9 2.7-9.3 5.4-12 6.1-2.7 0.6-6.9 2.1-9.4 3.4-8.2 4-15.5 2.9-19.9-3z"/>
	</g>
</svg>