<?xml version="1.0" encoding="UTF-8" standalone="no"?>
<svg
   height="32"
   viewBox="0 0 32 32"
   width="32"
   fill="#000000"
   version="1.1"
   id="svg6"
   sodipodi:docname="MapLegend.svg"
   inkscape:version="1.2.2 (b0a84865, 2022-12-01)"
   xmlns:inkscape="http://www.inkscape.org/namespaces/inkscape"
   xmlns:sodipodi="http://sodipodi.sourceforge.net/DTD/sodipodi-0.dtd"
   xmlns="http://www.w3.org/2000/svg"
   xmlns:svg="http://www.w3.org/2000/svg">
  <defs
     id="defs10" />
  <sodipodi:namedview
     id="namedview8"
     pagecolor="#ffffff"
     bordercolor="#000000"
     borderopacity="0.25"
     inkscape:showpageshadow="2"
     inkscape:pageopacity="0.0"
     inkscape:pagecheckerboard="0"
     inkscape:deskcolor="#d1d1d1"
     showgrid="false"
     inkscape:zoom="9.8333333"
     inkscape:cx="8.6440678"
     inkscape:cy="12.864407"
     inkscape:window-width="1309"
     inkscape:window-height="625"
     inkscape:window-x="1513"
     inkscape:window-y="52"
     inkscape:window-maximized="0"
     inkscape:current-layer="svg6" />
  <path
     d="M 0,0 H 24 V 24 H 0 Z"
     fill="none"
     id="path2" />
  <path
     d="m 16.605,22.535 c -0.36,0.28 -0.87,0.28 -1.23,0 l -6.1500002,-4.78 c -0.36,-0.28 -0.86,-0.28 -1.22,0 -0.51,0.4 -0.51,1.17 0,1.57 L 14.765,24.585 c 0.72,0.56 1.73,0.56 2.46,0 l 6.76,-5.26 c 0.51,-0.4 0.51,-1.17 0,-1.57 l -0.01,-0.01 c -0.36,-0.28 -0.86,-0.28 -1.22,0 z m 0.63,-3.02 6.76,-5.26 c 0.51,-0.4 0.51,-1.18 0,-1.58 l -6.76,-5.2599999 c -0.72,-0.56 -1.73,-0.56 -2.46,0 L 8.0149998,12.685 c -0.51,0.4 -0.51,1.18 0,1.58 L 14.775,19.525 c 0.72,0.56 1.74,0.56 2.46,-0.01 z"
     id="path4"
     style="fill:#333333" />
</svg>
