<svg version="1.2" xmlns="http://www.w3.org/2000/svg" viewBox="0 0 1024 1024" width="1024" height="1024">
	<title>網站圖表ICON</title>
	<style>
		tspan { white-space:pre } 
		.s0 { opacity: .2;fill: #000000 } 
		.s1 { opacity: .8;fill: #000000 } 
		.s2 { opacity: .7;fill: #000000 } 
		.s3 { opacity: .3;fill: #000000 } 
		.s4 { opacity: .5;fill: #000000 } 
		.s5 { opacity: .6;fill: #000000 } 
		.s6 { opacity: .4;fill: #000000 } 
	</style>
	<g id="12 矩陣圖">
		<path id="Layer 11 copy 9" class="s0" d="m721.3 545c0-8.3 6.7-15 15-15h135.3c8.3 0 15 6.7 15 15v109.3c0 8.3-6.7 15-15 15h-135.3c-8.3 0-15-6.7-15-15z"/>
		<path id="Layer 11 copy 10" class="s0" d="m721.3 710c0-8.2 6.7-15 15-15h135.3c8.3 0 15 6.8 15 15v109.3c0 8.3-6.7 15-15 15h-135.3c-8.3 0-15-6.7-15-15z"/>
		<path id="Layer 11 copy 11" class="s1" d="m529.7 545c0-8.3 6.8-15 15-15h135.4c8.3 0 15 6.7 15 15v109.3c0 8.3-6.7 15-15 15h-135.4c-8.2 0-15-6.7-15-15z"/>
		<path id="Layer 11 copy 12" class="s0" d="m529.7 710c0-8.2 6.8-15 15-15h135.4c8.3 0 15 6.8 15 15v109.3c0 8.3-6.7 15-15 15h-135.4c-8.2 0-15-6.7-15-15z"/>
		<path id="Layer 11 copy 15" class="s2" d="m330.2 545c0-8.3 6.7-15 15-15h135.3c8.3 0 15 6.7 15 15v109.3c0 8.3-6.7 15-15 15h-135.3c-8.3 0-15-6.7-15-15z"/>
		<path id="Layer 11 copy 16" class="s3" d="m330.2 710c0-8.2 6.7-15 15-15h135.3c8.3 0 15 6.8 15 15v109.3c0 8.3-6.7 15-15 15h-135.3c-8.3 0-15-6.7-15-15z"/>
		<path id="Layer 11 copy 17" class="s3" d="m136 545c0-8.3 6.7-15 15-15h135.3c8.3 0 15 6.7 15 15v109.3c0 8.3-6.7 15-15 15h-135.3c-8.3 0-15-6.7-15-15z"/>
		<path id="Layer 11 copy 18" class="s4" d="m136 710c0-8.2 6.7-15 15-15h135.3c8.3 0 15 6.8 15 15v109.3c0 8.3-6.7 15-15 15h-135.3c-8.3 0-15-6.7-15-15z"/>
		<path id="Layer 11 copy 19" class="s3" d="m721.3 217c0-8.3 6.7-15 15-15h135.3c8.3 0 15 6.7 15 15v109.3c0 8.3-6.7 15-15 15h-135.3c-8.3 0-15-6.7-15-15z"/>
		<path id="Layer 11 copy 20" class="s5" d="m721.3 382c0-8.2 6.7-15 15-15h135.3c8.3 0 15 6.8 15 15v109.3c0 8.3-6.7 15-15 15h-135.3c-8.3 0-15-6.7-15-15z"/>
		<path id="Layer 11 copy 21" class="s3" d="m529.7 217c0-8.3 6.8-15 15-15h135.4c8.3 0 15 6.7 15 15v109.3c0 8.3-6.7 15-15 15h-135.4c-8.2 0-15-6.7-15-15z"/>
		<path id="Layer 11 copy 22" class="s6" d="m529.7 382c0-8.2 6.8-15 15-15h135.4c8.3 0 15 6.8 15 15v109.3c0 8.3-6.7 15-15 15h-135.4c-8.2 0-15-6.7-15-15z"/>
		<path id="Layer 11 copy 25" class="s0" d="m330.2 217c0-8.3 6.7-15 15-15h135.3c8.3 0 15 6.7 15 15v109.3c0 8.3-6.7 15-15 15h-135.3c-8.3 0-15-6.7-15-15z"/>
		<path id="Layer 11 copy 26" class="s3" d="m330.2 382c0-8.2 6.7-15 15-15h135.3c8.3 0 15 6.8 15 15v109.3c0 8.3-6.7 15-15 15h-135.3c-8.3 0-15-6.7-15-15z"/>
		<path id="Layer 11 copy 27" class="s0" d="m136 217c0-8.3 6.7-15 15-15h135.3c8.3 0 15 6.7 15 15v109.3c0 8.3-6.7 15-15 15h-135.3c-8.3 0-15-6.7-15-15z"/>
		<path id="Layer 11 copy 28" class="s0" d="m136 382c0-8.2 6.7-15 15-15h135.3c8.3 0 15 6.8 15 15v109.3c0 8.3-6.7 15-15 15h-135.3c-8.3 0-15-6.7-15-15z"/>
	</g>
</svg>