<?xml version="1.0" encoding="UTF-8" standalone="no"?>
<svg
   version="1.2"
   viewBox="0 0 1024 1024"
   width="1024"
   height="1024"
   id="svg12"
   sodipodi:docname="IndicatorChart.svg"
   inkscape:version="1.2.2 (b0a84865, 2022-12-01)"
   xmlns:inkscape="http://www.inkscape.org/namespaces/inkscape"
   xmlns:sodipodi="http://sodipodi.sourceforge.net/DTD/sodipodi-0.dtd"
   xmlns="http://www.w3.org/2000/svg"
   xmlns:svg="http://www.w3.org/2000/svg">
  <defs
     id="defs16" />
  <sodipodi:namedview
     id="namedview14"
     pagecolor="#ffffff"
     bordercolor="#000000"
     borderopacity="0.25"
     inkscape:showpageshadow="2"
     inkscape:pageopacity="0.0"
     inkscape:pagecheckerboard="0"
     inkscape:deskcolor="#d1d1d1"
     showgrid="false"
     inkscape:zoom="0.65186406"
     inkscape:cx="267.69385"
     inkscape:cy="405.75944"
     inkscape:window-width="2194"
     inkscape:window-height="997"
     inkscape:window-x="0"
     inkscape:window-y="25"
     inkscape:window-maximized="0"
     inkscape:current-layer="01 橫向長條圖" />
  <title
     id="title2">網站圖表ICON</title>
  <style
     id="style4">
		tspan { white-space:pre } 
		.s0 { fill: #000000 } 
		.s1 { opacity: .5;fill: #000000 } 
	</style>
  <g
     id="01 橫向長條圖"
     transform="rotate(-90,520,517)">
    <path
       id="Shape 1"
       class="s0"
       d="m 128,173 c 0,-8.3 5.37589,-15 12.03558,-15 h 604.98856 c 6.65969,0 12.03558,6.7 12.03558,15 v 104 c 0,8.3 -5.37589,15 -12.03558,15 H 140.03558 C 133.37589,292 128,285.3 128,277 Z"
       style="stroke-width:0.895752" />
    <path
       id="Shape 1 copy"
       class="s0"
       d="m 128,465 c 0,-8.3 6.7,-15 15,-15 h 600 c 8.3,0 15,6.7 15,15 v 104 c 0,8.3 -6.7,15 -15,15 H 143 c -8.3,0 -15,-6.7 -15,-15 z" />
    <path
       id="Shape 1 copy 2"
       class="s0"
       d="m 128,757 c 0,-8.3 8.92586,-15 19.98326,-15 h 587.50782 c 11.05741,0 19.98326,6.7 19.98326,15 v 104 c 0,8.3 -8.92585,15 -19.98326,15 H 147.98326 C 136.92586,876 128,869.3 128,861 Z"
       style="stroke-width:1.15422;fill:#000000;fill-opacity:0.50196081" />
    <path
       id="Shape 1 copy 3"
       class="s1"
       d="m 128,611 c 0,-8.3 10.95582,-15 24.52796,-15 h 578.85996 c 13.57214,0 24.52797,6.7 24.52797,15 v 104 c 0,8.3 -10.95583,15 -24.52797,15 H 152.52796 C 138.95582,730 128,723.3 128,715 Z"
       style="stroke-width:1.27875" />
    <path
       id="Shape 1 copy 4"
       class="s1"
       d="m 128,319 c 0,-8.3 7.78694,-15 17.43344,-15 h 591.57467 c 9.6465,0 17.43343,6.7 17.43343,15 v 104 c 0,8.3 -7.78693,15 -17.43343,15 H 145.43344 C 135.78694,438 128,431.3 128,423 Z"
       style="stroke-width:1.07807" />
  </g>
</svg>
