<?xml version="1.0" encoding="UTF-8" standalone="no"?>
<!-- Created with Inkscape (http://www.inkscape.org/) -->

<svg
   width="100mm"
   height="100mm"
   viewBox="0 0 100 100"
   version="1.1"
   id="svg5"
   xml:space="preserve"
   inkscape:export-filename="PolarAreaChart.svg"
   inkscape:export-xdpi="96"
   inkscape:export-ydpi="96"
   xmlns:inkscape="http://www.inkscape.org/namespaces/inkscape"
   xmlns:sodipodi="http://sodipodi.sourceforge.net/DTD/sodipodi-0.dtd"
   xmlns="http://www.w3.org/2000/svg"
   xmlns:svg="http://www.w3.org/2000/svg"><sodipodi:namedview
     id="namedview7"
     pagecolor="#ffffff"
     bordercolor="#000000"
     borderopacity="0.25"
     inkscape:showpageshadow="2"
     inkscape:pageopacity="0.0"
     inkscape:pagecheckerboard="0"
     inkscape:deskcolor="#d1d1d1"
     inkscape:document-units="mm"
     showgrid="false" /><defs
     id="defs2" /><g
     inkscape:label="Layer 1"
     inkscape:groupmode="layer"
     id="layer1"><g
       id="03 縱向長條圖"
       transform="matrix(0.11217233,0,0,0.1025322,-8.3333272,0.47602577)"
       style="fill:#666666"><path
         id="rect9028"
         style="fill:#333333;stroke-width:28.8537;stroke-linejoin:round"
         d="m 397.85913,97.20629 82.80865,304.77982 c 8.68619,-3.26686 17.78529,-5.03026 26.96867,-5.2265 8.94837,0.0118 17.84306,1.51243 26.37899,4.45033 L 616.6352,97.20629 c -81.14941,-43.788216 -147.45888,-49.695085 -218.77607,0 z"
         sodipodi:nodetypes="cccccc" /><path
         id="rect9028-1"
         style="fill:#4d4d4d;stroke-width:28.8537;stroke-linejoin:round"
         d="M 651.93258,250.10874 548.58239,407.82245 c 17.66741,10.14266 31.67209,26.53536 39.72972,46.50426 L 747.38895,375.45108 C 718.02061,298.94484 715.65737,290.44005 651.93258,250.10874 Z"
         sodipodi:nodetypes="ccccc" /><path
         id="rect9028-1-3"
         style="fill:#000000;stroke-width:28.8537;stroke-linejoin:round"
         d="m 890.14098,392.95439 -298.31382,71.51284 a 88.255898,96.553764 0 0 1 4.06326,28.84908 88.255898,96.553764 0 0 1 -6.87807,36.07142 l 290.56506,102.62992 c 50.7564,-93.02509 49.77481,-165.32325 10.56357,-239.06326 z" /><path
         id="rect9028-1-3-8"
         style="fill:#333333;stroke-width:28.8537;stroke-linejoin:round"
         d="m 582.75621,542.8597 c -10.31744,18.6308 -26.09031,32.89729 -44.75582,40.48144 l 237.17642,349.40248 c 91.67436,-40.96667 130.6132,-99.3897 139.79113,-184.10688 z"
         sodipodi:nodetypes="ccccc" /><path
         id="rect9028-1-9"
         style="fill:#4d4d4d;fill-opacity:1;stroke-width:28.2027;stroke-linejoin:round"
         d="M 243.3969,51.104397 C 171.14633,71.907987 125.30826,121.63294 101.03974,226.34589 l 326.33567,227.41634 c 7.34902,-17.50513 19.31617,-32.20523 34.36271,-42.21017 z"
         sodipodi:nodetypes="ccccc" /><path
         id="rect9028-1-3-4"
         style="fill:#333333;stroke-width:28.2027;stroke-linejoin:round"
         d="m 270.98462,404.41555 c -25.56221,75.90975 -22.53207,72.26676 0.17727,163.1221 L 423.6853,521.33378 c -2.68921,-9.05595 -4.13918,-18.49729 -4.30283,-28.01747 0.18743,-11.03369 2.10245,-21.95057 5.66186,-32.27629 z"
         sodipodi:nodetypes="cccccc" /><path
         id="rect9028-1-3-8-3"
         style="fill:#000000;fill-opacity:1;stroke:none;stroke-width:28.2027;stroke-linejoin:round;stroke-opacity:1"
         d="M 427.98812,534.79567 159.51305,675.47774 c 8.76847,84.71719 45.96899,143.14022 133.55341,184.10689 L 466.18375,578.1348 a 88.255898,96.553764 0 0 1 -38.19563,-43.33913 z" /><path
         id="rect9028-1-3-8-8"
         style="fill:#4d4d4d;stroke-width:28.8537;stroke-linejoin:round"
         d="m 476.67362,583.11434 -41.61608,258.86478 c 96.60315,32.75266 118.42481,29.25745 180.46262,-22.42813 l -83.72063,-233.836 c -7.83913,2.60457 -15.97157,4.00232 -24.16308,4.15298 -10.6081,-0.19684 -21.09684,-2.48465 -30.96283,-6.75363 z"
         sodipodi:nodetypes="cccccc" /></g></g><style
     id="style134">
		tspan { white-space:pre } 
		.s0 { fill: #000000 } 
		.s1 { opacity: .5;fill: #000000 } 
	</style><style
     id="style1251">
		tspan { white-space:pre } 
		.s0 { fill: #000000 } 
		.s1 { opacity: .5;fill: #000000 } 
	</style><style
     id="style1659">
		tspan { white-space:pre } 
		.s0 { fill: #000000 } 
		.s1 { opacity: .5;fill: #000000 } 
	</style></svg>
