<svg version="1.2" xmlns="http://www.w3.org/2000/svg" viewBox="0 0 1024 1024" width="1024" height="1024">
	<title>網站圖表ICON</title>
	<style>
		tspan { white-space:pre } 
		.s0 { opacity: .3;fill: #000000 } 
		.s1 { opacity: .6;fill: #000000 } 
		.s2 { fill: #000000 } 
	</style>
	<g id="09 矩形圖">
		<path id="Layer 11" class="s0" d="m120 180c0-8.3 6.7-15 15-15h277.2c8.3 0 15 6.7 15 15v305.9c0 8.3-6.7 15-15 15h-277.2c-8.3 0-15-6.7-15-15z"/>
		<path id="Layer 11 copy" class="s0" d="m120 538.6c0-8.3 6.7-15 15-15h277.2c8.3 0 15 6.7 15 15v305.9c0 8.3-6.7 15-15 15h-277.2c-8.3 0-15-6.7-15-15z"/>
		<path id="Layer 11 copy 2" class="s1" d="m441 180c0-8.3 6.7-15 15-15h196.3c8.2 0 15 6.7 15 15v198.3c0 8.3-6.8 15-15 15h-196.3c-8.3 0-15-6.7-15-15z"/>
		<path id="Layer 11 copy 3" class="s1" d="m676.7 180c0-8.3 6.8-15 15-15h196.3c8.3 0 15 6.7 15 15v198.3c0 8.3-6.7 15-15 15h-196.3c-8.2 0-15-6.7-15-15z"/>
		<path id="Layer 11 copy 4" class="s2" d="m441.6 422.7c0-8.3 6.7-15 15-15h113.8c8.2 0 15 6.7 15 15v187.1c0 8.3-6.8 15-15 15h-113.8c-8.3 0-15-6.7-15-15z"/>
		<path id="Layer 11 copy 5" class="s2" d="m597.8 422.7c0-8.3 6.7-15 15-15h113.8c8.3 0 15 6.7 15 15v187.1c0 8.3-6.7 15-15 15h-113.8c-8.3 0-15-6.7-15-15z"/>
		<path id="Layer 11 copy 6" class="s2" d="m441.6 656.1c0-8.3 6.7-15 15-15h113.8c8.2 0 15 6.7 15 15v187.1c0 8.3-6.8 15-15 15h-113.8c-8.3 0-15-6.7-15-15z"/>
		<path id="Layer 11 copy 7" class="s2" d="m597.8 656.1c0-8.3 6.7-15 15-15h113.8c8.3 0 15 6.7 15 15v187.1c0 8.3-6.7 15-15 15h-113.8c-8.3 0-15-6.7-15-15z"/>
		<path id="Layer 11 copy 8" class="s2" d="m756.8 422.7c0-8.3 6.7-15 15-15h113.8c8.3 0 15 6.7 15 15v187.1c0 8.3-6.7 15-15 15h-113.8c-8.3 0-15-6.7-15-15z"/>
		<path id="Layer 11 copy 9" class="s2" d="m756.8 657.4c0-8.3 6.7-15 15-15h113.8c8.3 0 15 6.7 15 15v72.4c0 8.3-6.7 15-15 15h-113.8c-8.3 0-15-6.7-15-15z"/>
		<path id="Layer 11 copy 10" class="s2" d="m756.8 771c0-8.3 6.7-15 15-15h113.8c8.3 0 15 6.7 15 15v72.3c0 8.3-6.7 15-15 15h-113.8c-8.3 0-15-6.7-15-15z"/>
	</g>
</svg>